<svg xmlns="http://www.w3.org/2000/svg" viewBox="0 0 16 16" width="100%" height="100%" shape-rendering="crispEdges">
  <!-- Leaves (Vintage Sage Green) -->
  <rect x="7" y="1" width="2" height="1" fill="#759280" />
  <rect x="5" y="2" width="6" height="1" fill="#759280" />
  <rect x="3" y="3" width="10" height="1" fill="#759280" />
  <rect x="7" y="0" width="2" height="1" fill="#5E7869" />
  <rect x="4" y="2" width="1" height="1" fill="#5E7869" />
  <rect x="11" y="2" width="1" height="1" fill="#5E7869" />

  <!-- Strawberry Body (Cherry Red) -->
  <rect x="4" y="4" width="8" height="1" fill="#D9455B" />
  <rect x="3" y="5" width="10" height="2" fill="#D9455B" />
  <rect x="2" y="7" width="12" height="3" fill="#D9455B" />
  <rect x="3" y="10" width="10" height="2" fill="#D9455B" />
  <rect x="4" y="12" width="8" height="1" fill="#D9455B" />
  <rect x="6" y="13" width="4" height="1" fill="#D9455B" />
  <rect x="7" y="14" width="2" height="1" fill="#D9455B" />

  <!-- Strawberry Shadow (Deep Maroon) -->
  <rect x="11" y="5" width="1" height="2" fill="#9C3040" />
  <rect x="12" y="7" width="1" height="3" fill="#9C3040" />
  <rect x="11" y="10" width="1" height="2" fill="#9C3040" />
  <rect x="10" y="12" width="1" height="1" fill="#9C3040" />
  <rect x="8" y="13" width="1" height="1" fill="#9C3040" />
  <rect x="7" y="14" width="1" height="1" fill="#9C3040" />
  <rect x="8" y="14" width="1" height="1" fill="#9C3040" />
  
  <!-- Strawberry Outline (Espresso Plum) -->
  <rect x="4" y="3" width="8" height="1" fill="#4E3C44" />
  <rect x="3" y="4" width="1" height="1" fill="#4E3C44" />
  <rect x="12" y="4" width="1" height="1" fill="#4E3C44" />
  <rect x="2" y="5" width="1" height="2" fill="#4E3C44" />
  <rect x="13" y="5" width="1" height="2" fill="#4E3C44" />
  <rect x="1" y="7" width="1" height="3" fill="#4E3C44" />
  <rect x="14" y="7" width="1" height="3" fill="#4E3C44" />
  <rect x="2" y="10" width="1" height="2" fill="#4E3C44" />
  <rect x="13" y="10" width="1" height="2" fill="#4E3C44" />
  <rect x="3" y="12" width="1" height="1" fill="#4E3C44" />
  <rect x="12" y="12" width="1" height="1" fill="#4E3C44" />
  <rect x="5" y="13" width="1" height="1" fill="#4E3C44" />
  <rect x="10" y="13" width="1" height="1" fill="#4E3C44" />
  <rect x="6" y="14" width="1" height="1" fill="#4E3C44" />
  <rect x="9" y="14" width="1" height="1" fill="#4E3C44" />
  <rect x="7" y="15" width="2" height="1" fill="#4E3C44" />

  <!-- Seeds (Yellow) -->
  <rect x="5" y="6" width="1" height="1" fill="#F5C469" />
  <rect x="9" y="6" width="1" height="1" fill="#F5C469" />
  <rect x="4" y="9" width="1" height="1" fill="#F5C469" />
  <rect x="7" y="8" width="1" height="1" fill="#F5C469" />
  <rect x="10" y="9" width="1" height="1" fill="#F5C469" />
  <rect x="6" y="11" width="1" height="1" fill="#F5C469" />
  <rect x="9" y="11" width="1" height="1" fill="#F5C469" />

  <!-- Highlight Shine (White) -->
  <rect x="4" y="5" width="1" height="2" fill="#FFFDFD" opacity="0.9" />
  <rect x="5" y="5" width="1" height="1" fill="#FFFDFD" opacity="0.9" />
  <rect x="3" y="7" width="1" height="1" fill="#FFFDFD" opacity="0.9" />
</svg>
